{"title":"One Piece - 630 [HD 720p] [ENG SUBBED] [GWC].mkv","uid":9525779,"size":77974839,"categoryP":"video","categoryS":"tv_shows","magnet":"?xt=urn:btih:6b4b4ab5a3ac46d011b95dc43129a147a0d4e48e&amp;dn=One+Piece+-+630+%5BHD+720p%5D+%5BENG+SUBBED%5D+%5BGWC%5D.mkv&amp;tr=udp%3A%2F%2Ftracker.openbittorrent.com%3A80&amp;tr=udp%3A%2F%2Fopen.demonii.com%3A1337&amp;tr=udp%3A%2F%2Ftracker.coppersurfer.tk%3A6969&amp;tr=udp%3A%2F%2Fexodus.desync.com%3A6969","seeders":1,"leechers":1,"uploader":"canc232","files":1,"time":1390749891,"description":"One Piece - 630 [HD 720p] [ENG SUBBED] [GWC]\n\n\n\nTHUMBNAIL IMAGE : &lt;a href=&quot;\nhttp://img15.imageshack.us/img15/2503/y2k6.jpg&quot; rel=&quot;nofollow&quot; target=&quot;_NEW&quot;&gt;\nhttp://img15.imageshack.us/img15/2503/y2k6.jpg&lt;/a&gt;\n\n\n\nMEDIA INFO :\nGeneral \nFormat : Matroska \nFile size : 74.4 MiB \nDuration : 20mn 32s \nOverall bit rate : 506 Kbps \nWriting application : mkvmerge v6.6.0 ('The Edge Of The In Between') \n\nVideo \nFormat : AVC \nFormat profile : &lt;a class=&quot;__cf_email__&quot; href=&quot;/cdn-cgi/l/email-protection&quot; data-cfemail=&quot;9bd3f2fcf3dbd7afb5aa&quot;&gt;[email&amp;#160;protected]&lt;/a&gt;&lt;script cf-hash='f9e31' type=&quot;text/javascript&quot;&gt;\n/* &lt;![CDATA[ */!function(){try{var t=&quot;currentScript&quot;in document?document.currentScript:function(){for(var t=document.getElementsByTagName(&quot;script&quot;),e=t.length;e--;)if(t[e].getAttribute(&quot;cf-hash&quot;))return t[e]}();if(t&amp;&amp;t.previousSibling){var e,r,n,i,c=t.previousSibling,a=c.getAttribute(&quot;data-cfemail&quot;);if(a){for(e=&quot;&quot;,r=parseInt(a.substr(0,2),16),n=2;a.length-n;n+=2)i=parseInt(a.substr(n,2),16)^r,e+=String.fromCharCode(i);e=document.createTextNode(e),c.parentNode.replaceChild(e,c)}}}catch(u){}}();/* ]]&gt; */&lt;/script&gt; \nFormat settings, CABAC : Yes \nFormat settings, ReFrames : 11 frames \nDuration : 20mn 32s \nBit rate : 440 Kbps \nWidth : 1 280 pixels \nHeight : 720 pixels \nDisplay aspect ratio : 16:9 \nFrame rate : 29.970 fps \nStream size : 64.7 MiB (87%) \nTitle : One Piece - 630 [HD 720p] [ENG SUBBED] [GWC] \n\nAudio \nFormat : Vorbis \nDuration : 20mn 32s \nBit rate mode : Variable \nChannel(s) : 2 channels \nSampling rate : 44.1 KHz \nStream size : 8.22 MiB (11%) \nWriting library : aoTuV 20110424\n\nText \nFormat : UTF-8 \nCodec ID/Info : UTF-8 Plain Text \nTitle : [GWC] \nLanguage : English ","torrent":{"xt":"urn:btih:6b4b4ab5a3ac46d011b95dc43129a147a0d4e48e","amp;dn":"One+Piece+-+630+%5BHD+720p%5D+%5BENG+SUBBED%5D+%5BGWC%5D.mkv","amp;tr":["udp%3A%2F%2Ftracker.openbittorrent.com%3A80","udp%3A%2F%2Fopen.demonii.com%3A1337","udp%3A%2F%2Ftracker.coppersurfer.tk%3A6969","udp%3A%2F%2Fexodus.desync.com%3A6969"],"infoHash":"6b4b4ab5a3ac46d011b95dc43129a147a0d4e48e","infoHashBuffer":{"type":"Buffer","data":[107,75,74,181,163,172,70,208,17,185,93,196,49,41,161,71,160,212,228,142]},"announce":[],"urlList":[]}}